<?xml version="1.0" encoding="UTF-8" standalone="no"?>
<!-- Created with Inkscape (http://www.inkscape.org/) -->

<svg
   xmlns:dc="http://purl.org/dc/elements/1.1/"
   xmlns:cc="http://creativecommons.org/ns#"
   xmlns:rdf="http://www.w3.org/1999/02/22-rdf-syntax-ns#"
   xmlns:svg="http://www.w3.org/2000/svg"
   xmlns="http://www.w3.org/2000/svg"
   xmlns:sodipodi="http://sodipodi.sourceforge.net/DTD/sodipodi-0.dtd"
   xmlns:inkscape="http://www.inkscape.org/namespaces/inkscape"
   width="640"
   height="640"
   id="svg3001"
   version="1.1"
   inkscape:version="0.48.2 r9819"
   sodipodi:docname="fuelmanager.svg">
  <defs
     id="defs3003" />
  <sodipodi:namedview
     id="base"
     pagecolor="#ffffff"
     bordercolor="#666666"
     borderopacity="1.0"
     inkscape:pageopacity="0.0"
     inkscape:pageshadow="2"
     inkscape:zoom="0.81875"
     inkscape:cx="320"
     inkscape:cy="320"
     inkscape:document-units="px"
     inkscape:current-layer="layer1"
     showgrid="false"
     inkscape:window-width="1178"
     inkscape:window-height="703"
     inkscape:window-x="0"
     inkscape:window-y="35"
     inkscape:window-maximized="0" />
  <metadata
     id="metadata3006">
    <rdf:RDF>
      <cc:Work
         rdf:about="">
        <dc:format>image/svg+xml</dc:format>
        <dc:type
           rdf:resource="http://purl.org/dc/dcmitype/StillImage" />
        <dc:title></dc:title>
      </cc:Work>
    </rdf:RDF>
  </metadata>
  <g
     inkscape:label="Layer 1"
     inkscape:groupmode="layer"
     id="layer1"
     transform="translate(0,-412.36218)">
    <rect
       style="fill:none;fill-opacity:1;stroke:#000000;stroke-width:10;stroke-miterlimit:4;stroke-opacity:1;stroke-dasharray:none"
       id="rect3783"
       width="304.12213"
       height="550.83972"
       x="52.519085"
       y="53.740459"
       transform="translate(0,412.36218)" />
    <text
       xml:space="preserve"
       style="font-size:128.48321533000000727px;font-style:normal;font-weight:normal;line-height:125%;letter-spacing:0px;word-spacing:0px;fill:#ff0000;fill-opacity:1;stroke:none;font-family:Sans"
       x="90.630699"
       y="551.21704"
       id="text3785"
       sodipodi:linespacing="125%"
       transform="scale(0.90840162,1.1008347)"><tspan
         sodipodi:role="line"
         id="tspan3787"
         x="90.630699"
         y="551.21704">Fuel</tspan></text>
    <path
       style="fill:none;stroke:#000000;stroke-width:10;stroke-linecap:butt;stroke-linejoin:miter;stroke-opacity:1;stroke-miterlimit:4;stroke-dasharray:none"
       d="m 51.29771,246.71756 302.90076,-2.44275"
       id="path3789"
       inkscape:connector-curvature="0"
       transform="translate(0,412.36218)" />
    <path
       sodipodi:type="arc"
       style="fill:#000000;fill-opacity:1;stroke:#000000;stroke-width:1;stroke-miterlimit:4;stroke-opacity:1;stroke-dasharray:none"
       id="path3808"
       sodipodi:cx="492.82443"
       sodipodi:cy="184.42747"
       sodipodi:rx="26.259542"
       sodipodi:ry="20.763359"
       d="m 519.08397,184.42747 a 26.259542,20.763359 0 1 1 -52.51908,0 26.259542,20.763359 0 1 1 52.51908,0 z"
       transform="matrix(0.70467236,0,0,0.56767387,108.29277,452.40035)" />
    <rect
       style="fill:#000000;fill-opacity:1;stroke:#000000;stroke-width:0.52188337;stroke-linecap:round;stroke-miterlimit:4;stroke-opacity:1;stroke-dasharray:none"
       id="rect3810"
       width="65.430458"
       height="34.935268"
       x="453.01135"
       y="555.14453" />
    <rect
       style="fill:#000000;fill-opacity:1;stroke:#000000;stroke-width:0.560965;stroke-miterlimit:4;stroke-opacity:1;stroke-dasharray:none"
       id="rect3812"
       width="33.872982"
       height="65.730751"
       x="473.77112"
       y="584.45392" />
    <path
       style="fill:none;stroke:#000000;stroke-width:2;stroke-linecap:butt;stroke-linejoin:miter;stroke-miterlimit:4;stroke-opacity:1;stroke-dasharray:none"
       d="m 458.01527,586.71334 1.22137,59.48187"
       id="path3817"
       inkscape:connector-curvature="0" />
    <path
       style="fill:none;stroke:#000000;stroke-width:1.51600003;stroke-linecap:butt;stroke-linejoin:miter;stroke-miterlimit:4;stroke-opacity:1;stroke-dasharray:none"
       d="m 477.13693,645.83501 -18.57988,-0.38074"
       id="path3819"
       inkscape:connector-curvature="0" />
    <path
       style="fill:none;stroke:#000000;stroke-width:4.81650686;stroke-linecap:butt;stroke-linejoin:miter;stroke-miterlimit:4;stroke-opacity:1;stroke-dasharray:none"
       d="m 443.22915,551.4692 -24.15162,-19.00784 -23.22271,-7.60314"
       id="path3827"
       inkscape:connector-curvature="0" />
    <path
       style="fill:none;stroke:#000000;stroke-width:8.06389809;stroke-linecap:round;stroke-linejoin:miter;stroke-miterlimit:1;stroke-opacity:1;stroke-dasharray:none"
       d="m 490.97335,651.37483 11.30175,129.4874 c -0.97481,4.26188 -0.86936,8.10189 -0.86936,12.39772 0,0.45918 0.20491,1.05285 0,1.37753 -0.20492,0.32468 -0.66446,-0.32468 -0.86936,0 -0.20921,0.33148 0.20919,5.17862 0,5.5101 -0.20493,0.3247 -0.66447,-0.32468 -0.86937,0 -0.20491,0.3247 0,0.91834 0,1.37753 0,0.45918 0,0.91836 0,1.37752 0,6.88763 0,13.77526 0,20.66289 0,1.06017 0.14373,6.43212 0,6.88763 -0.36657,1.16163 -1.37218,1.59343 -1.73873,2.75505 -0.25921,0.8214 0,1.83671 0,2.75505 0,2.29587 0,4.59176 0,6.88763 0,0.91834 0,1.8367 0,2.75505 0,0.45917 0.0917,0.94192 0,1.37752 -0.20491,0.97406 -0.71221,1.75897 -0.86937,2.75506 -0.16529,1.04756 0,5.73411 0,6.88763 0,4.59175 0,9.18349 0,13.77525 0,1.37753 0,2.75504 0,4.13258 0,0.45917 0.20491,1.05284 0,1.37753 -0.20492,0.32468 -0.73977,-0.41071 -0.86937,0 -0.25919,0.82138 0,1.8367 0,2.75505 0,2.29587 0,4.59173 0,6.88763 0,0.45917 0,0.91834 0,1.37751 0,0.45918 0.2049,1.05284 0,1.37753 -0.20492,0.32468 -0.66446,-0.32469 -0.86936,0 -0.20491,0.32468 0,0.91836 0,1.37753 0,0.91835 0,1.8367 0,2.75505 0,5.96928 0,11.93855 0,17.90783 0,5.96927 0,11.93856 0,17.90784 0,0.45918 0,0.91834 0,1.37752 0,0.45918 0.2049,1.05284 0,1.37752 -0.20491,0.32469 -0.66446,-0.32468 -0.86937,0 -0.2092,0.33148 0.20919,5.17862 0,5.51011 -0.20492,0.32469 -0.66445,-0.32469 -0.86936,0 -0.43469,0.68876 0.43468,3.44381 0,4.13257 -0.20491,0.32469 -0.66446,-0.32468 -0.86938,0 -0.43467,0.68875 0.43469,3.44382 0,4.13258 -0.20491,0.32468 -0.66445,-0.32468 -0.86935,0 -0.40984,0.64938 0.40981,2.10568 0,2.75505 -0.20492,0.32469 -0.66447,-0.32469 -0.86937,0 -0.40983,0.64937 0.40982,2.10567 0,2.75505 -0.20491,0.32469 -0.66446,-0.32467 -0.86938,0 -0.20491,0.32469 0.1296,0.96683 0,1.37754 -0.18327,0.58081 -0.68608,0.79671 -0.86935,1.37751 -0.1296,0.41071 0.12959,0.96682 0,1.37753 -0.18329,0.58081 -0.6861,0.79671 -0.86938,1.37752 -0.12958,0.4107 0.20491,1.05284 0,1.37753 -0.20491,0.32469 -0.66445,-0.32469 -0.86935,0 -0.20492,0.32469 0.2049,1.05284 0,1.37752 -0.20492,0.32468 -0.66447,-0.32468 -0.86937,0 -0.20491,0.32468 0.2049,1.05285 0,1.37753 -0.20491,0.32468 -0.66446,-0.32468 -0.86937,0 -0.20492,0.32468 0.20491,1.05284 0,1.37754 -2.03111,3.2183 0.29237,-3.21833 -1.73873,0 -0.20491,0.32468 0.2049,1.05283 0,1.37751 -0.20491,0.32468 -0.66445,-0.32468 -0.86936,0 -0.20492,0.32468 0.20491,1.05285 0,1.37753 -0.20492,0.32468 -0.66447,-0.32468 -0.86937,0 -0.20491,0.32468 0.2049,1.05283 0,1.37752 -0.20491,0.32469 -0.66446,-0.32469 -0.86937,0 -0.20491,0.32469 0.20491,1.05283 0,1.37752 -0.43468,0.68877 -2.17341,-0.68875 -2.6081,0 -0.20491,0.3247 0.20491,1.05286 0,1.37754 -0.20491,0.32467 -0.61017,-0.20536 -0.86936,0 -0.36656,0.29041 -0.50282,1.08711 -0.86937,1.37752 -0.51839,0.4107 -1.32891,-0.64937 -1.73873,0 -0.20491,0.32469 0.2049,1.05284 0,1.37754 -1.95857,3.10337 0.21984,-3.1034 -1.73872,0 -0.20493,0.32468 0.2049,1.05283 0,1.37751 -0.40983,0.64937 -1.32893,-0.64937 -1.73875,0 -0.20491,0.32468 0.20491,1.05284 0,1.37752 -0.20491,0.32469 -0.66446,-0.32468 -0.86936,0 -0.20491,0.32469 0.2049,1.05284 0,1.37753 -0.43467,0.68877 -2.17342,-0.68877 -2.6081,0 -0.20491,0.32469 0.2049,1.05283 0,1.37752 -0.40982,0.64937 -1.32892,-0.64936 -1.73873,0 -0.20491,0.32469 0.2049,1.05286 0,1.37754 -0.43468,0.68875 -2.17341,-0.68876 -2.6081,0 -0.20491,0.32468 0.2049,1.05283 0,1.37752 -0.2092,0.33148 -3.26827,-0.33148 -3.47746,0 -0.20492,0.32469 0.20491,1.05283 0,1.37752 -0.43468,0.68877 -2.17342,-0.68876 -2.6081,0 -0.20492,0.3247 0.20491,1.05285 0,1.37753 -0.2092,0.33147 -3.26827,-0.33148 -3.47747,0 -0.20491,0.32468 0.20492,1.05284 0,1.37752 -0.43467,0.68876 -2.1734,-0.68875 -2.6081,0 -0.20491,0.32468 0.20493,1.05284 0,1.37753 -0.26919,0.42655 -4.07763,-0.42655 -4.34683,0 -0.20491,0.32469 0.20492,1.05284 0,1.37753 -0.0393,0.0625 -3.93692,0 -4.34682,0 -0.28979,0 -0.66445,-0.32469 -0.86936,0 -0.20492,0.32469 0.20491,1.05284 0,1.37753 -0.20492,0.32468 -0.57959,0 -0.86937,0 -0.28979,0 -0.57958,0 -0.86937,0 -2.31832,0 -4.63661,0 -6.95493,0 -0.4546,0 -3.24886,0.1811 -3.47746,0 -0.36655,-0.29042 -0.50281,-1.08713 -0.86937,-1.37753 -0.51839,-0.4107 -1.3289,0.64936 -1.73873,0 -0.20492,-0.32469 0.20491,-1.05284 0,-1.37753 -0.57664,-0.9137 -1.16208,0.91369 -1.73873,0 -0.20491,-0.32469 0.20491,-1.05285 0,-1.37753 -2.31831,0 0.28979,0.45918 -0.86936,-1.37752 -0.40982,-0.64937 -1.32892,0.64937 -1.73874,0 -0.20491,-0.32468 0.20491,-1.05283 0,-1.37753 -0.40982,-0.64937 -1.32891,0.64938 -1.73873,0 -0.20493,-0.32469 0.20491,-1.05283 0,-1.37752 -0.40983,-0.64937 -1.32891,0.64937 -1.73873,0 -0.20492,-0.32469 0.20492,-1.05284 0,-1.37752 -0.57665,-0.91371 -1.16209,0.9137 -1.73873,0 -0.20491,-0.32468 0.20492,-1.05285 0,-1.37754 -0.43468,-0.68875 -2.17342,0.68878 -2.60811,0 -0.20491,-0.32469 0.20492,-1.05283 0,-1.37752 -0.20491,-0.32469 -0.66444,0.32469 -0.86935,0 -0.20491,-0.32469 0.20491,-1.05284 0,-1.37753 -0.40983,-0.64937 -1.32892,0.64938 -1.73874,0 -0.20492,-0.32468 0.20491,-1.05284 0,-1.37752 -0.57665,-0.9137 -1.16209,0.91371 -1.73873,0 -0.20492,-0.32468 0,-0.91834 0,-1.37751 -0.28978,0 -0.66445,0.32468 -0.86936,0 -0.20492,-0.3247 0.20491,-1.05285 0,-1.37754 -0.40983,-0.64937 -1.32892,0.64937 -1.73873,0 -0.20492,-0.32468 0.20491,-1.05285 0,-1.37752 -0.40983,-0.64937 -1.32891,0.64937 -1.73875,0 -0.20491,-0.32468 0.20492,-1.05284 0,-1.37754 -0.57663,-0.91369 -1.16208,0.9137 -1.73872,0 -0.20491,-0.32469 0.20491,-1.05283 0,-1.37752 -0.40983,-0.64937 -1.32892,0.64937 -1.73874,0 -0.20491,-0.32469 0.20492,-1.05284 0,-1.37752 -0.57664,-0.91371 -1.16208,0.9137 -1.73872,0 -0.20492,-0.32468 0.20491,-1.05285 0,-1.37753 -0.20492,-0.32468 -0.57959,0 -0.86936,0 0,-0.45917 0.20491,-1.05283 0,-1.37751 -0.40984,-0.64938 -1.32893,0.64936 -1.73874,0 -0.20492,-0.3247 0.20491,-1.05286 0,-1.37754 -0.20492,-0.32468 -0.66445,0.32468 -0.86937,0 -0.20491,-0.32468 0.20492,-1.05285 0,-1.37753 -0.40981,-0.64937 -1.3289,0.64938 -1.73873,0 0,-3.6734 0.28979,0.45917 -0.86937,-1.37752 -0.20491,-0.32469 0.20492,-1.05284 0,-1.37753 -0.40982,-0.64937 -1.32891,0.64937 -1.73873,0 -0.2049,-0.32469 0.20492,-1.05284 0,-1.37752 -0.2049,-0.32468 -0.66445,0.32468 -0.86937,0 0,-3.67341 0.28979,0.45917 -0.86935,-1.37753 -0.20491,-0.32468 0.20491,-1.05283 0,-1.37751 -0.57665,-0.91371 -1.1621,0.91369 -1.73873,0 -0.20491,-0.3247 0.20491,-1.05285 0,-1.37754 -0.20491,-0.32467 -0.57958,0 -0.86939,0 0,-0.45917 0.20492,-1.05285 0,-1.37753 -0.2049,-0.32468 -0.66444,0.32468 -0.86936,0 -0.2049,-0.32468 0.20492,-1.05283 0,-1.37752 -0.2049,-0.32469 -0.66445,0.32469 -0.86936,0 -0.20491,-0.32469 0.20491,-1.05284 0,-1.37753 -0.20491,-0.32469 -0.66445,0.32469 -0.86937,0 -0.40982,-0.64937 0.40983,-2.10566 0,-2.75504 -0.20491,-0.32468 -0.66444,0.32469 -0.86936,0 -0.20491,-0.32468 0.20492,-1.05285 0,-1.37752 -0.20491,-0.32471 -0.57957,0 -0.86937,0 0,-0.45918 0.20491,-1.05285 0,-1.37754 -0.2049,-0.32468 -0.66444,0.32469 -0.86936,0 -0.20491,-0.32468 0.20492,-1.05285 0,-1.37753 -0.20491,-0.32468 -0.66445,0.32468 -0.86937,0 -0.20491,-0.32468 0.20492,-1.05283 0,-1.37751 -0.20491,-0.3247 -0.66446,0.32468 -0.86937,0 -0.40982,-0.64938 0.40983,-2.10568 0,-2.75506 -0.2049,-0.32468 -0.66445,0.32468 -0.86936,0 -0.40981,-0.64936 0.40981,-2.10569 0,-2.75505 -0.2049,-0.3247 -0.66446,0.32468 -0.86937,0 -0.2049,-0.3247 0.20491,-1.05284 0,-1.37753 -0.2049,-0.32468 -0.66444,0.32469 -0.86936,0 -0.43469,-0.68876 0.43469,-3.44381 0,-4.13257 -0.2049,-0.32468 -0.66446,0.32469 -0.86938,0 -0.2049,-0.32468 0.20492,-1.05286 0,-1.37753 -0.2049,-0.32468 -0.66444,0.32467 -0.86936,0 -0.43468,-0.68875 0.43469,-3.44382 0,-4.13258 -0.2049,-0.32468 -0.66444,0.32469 -0.86936,0 -0.26919,-0.42653 0.2692,-6.46106 0,-6.88763 -0.20491,-0.32468 -0.66445,0.32469 -0.86936,0 -0.2092,-0.33146 0.20919,-5.17863 0,-5.51009 -0.20492,-0.3247 -0.66447,0.32469 -0.86937,0 -0.40982,-0.64938 0.40982,-2.10568 0,-2.75506 -0.2049,-0.32468 -0.66446,0.3247 -0.86937,0 -0.0348,-0.0554 0,-5.00423 0,-5.5101 0,-0.45917 0,-0.91835 0,-1.37751 0,-0.45919 0.20491,-1.05286 0,-1.37755 -0.20491,-0.32468 -0.66445,0.32469 -0.86936,0 -0.0394,-0.0625 0,-6.23812 0,-6.88762 0,-0.45917 0.20491,-1.05284 0,-1.37752 -0.2049,-0.32469 -0.66445,0.32468 -0.86937,0 -0.0348,-0.0554 0,-5.00423 0,-5.5101 0,-0.45917 0,-0.91837 0,-1.37753 0,-0.45918 0.20492,-1.05285 0,-1.37754 -0.20491,-0.32468 -0.66446,0.32469 -0.86937,0 -0.20919,-0.33146 0.20921,-5.17861 0,-5.51008 -0.20491,-0.32469 -0.66445,0.32468 -0.86937,0 -0.43467,-0.68877 0.43469,-3.44383 0,-4.13258 -0.2049,-0.3247 -0.66444,0.32468 -0.86936,0 -0.40982,-0.64939 0.40984,-2.10568 0,-2.75505 -0.20491,-0.32469 -0.66445,0.32468 -0.86937,0 -0.40982,-0.64937 0.40984,-2.10568 0,-2.75505 -0.20489,-0.32469 -0.66444,0.32468 -0.86936,0 -0.43469,-0.68877 0.43468,-3.44383 0,-4.13258 -0.20491,-0.32469 -0.66445,0.32468 -0.86936,0 -0.40983,-0.64938 0.40982,-2.10568 0,-2.75505 -0.20491,-0.32469 -0.66446,0.32468 -0.86937,0 -0.2049,-0.32469 0,-0.91836 0,-1.37754 -0.2898,0 -0.66445,0.32471 -0.86938,0 -0.2049,-0.32468 0.20493,-1.05283 0,-1.37751 -0.2049,-0.32468 -0.66445,0.32468 -0.86936,0 -0.2049,-0.32468 0.20491,-1.05285 0,-1.37753 -0.2049,-0.32469 -0.66445,0.32468 -0.86936,0 -0.2049,-0.32469 0.20491,-1.05284 0,-1.37754 -0.2049,-0.32468 -0.66446,0.3247 -0.86937,0 -0.2049,-0.32468 0.20491,-1.05283 0,-1.37751 -0.2049,-0.32469 -0.66445,0.32468 -0.86936,0 -0.20491,-0.32469 0.20491,-1.05284 0,-1.37753 -0.20491,-0.32468 -0.66445,0.32469 -0.86937,0 -0.40982,-0.64938 0.40983,-2.10567 0,-2.75504 -0.20491,-0.32469 -0.57957,0 -0.86936,0 0,-0.45919 0.20491,-1.05286 0,-1.37754 -0.20491,-0.32467 -0.66445,0.32468 -0.86937,0 -0.40982,-0.64938 0.40984,-2.10567 0,-2.75506 -0.20491,-0.32468 -0.66445,0.3247 -0.86936,0 -0.20492,-0.32468 0.20491,-1.05283 0,-1.37751 -0.20492,-0.32469 -0.66446,0.32468 -0.86937,0 -0.40982,-0.64938 0.40984,-2.10568 0,-2.75505 -0.2049,-0.32469 -0.66446,0.32469 -0.86937,0 -0.2049,-0.32469 0,-0.91836 0,-1.37752 0,-0.45919 0,-0.91836 0,-1.37754"
       id="path3839"
       inkscape:connector-curvature="0" />
    <rect
       style="fill:#ffffff;fill-opacity:1;stroke:none;stroke-width:9;stroke-linecap:round;stroke-miterlimit:1;stroke-opacity:1;stroke-dasharray:none"
       id="rect3843"
       width="147.78625"
       height="191.75572"
       x="138.01527"
       y="326.10687"
       transform="translate(0,412.36218)" />
    <path
       style="fill:#ff0000;fill-opacity:1;stroke:none"
       d="m 57.89313,426.15515 0,-173.29524 35.725191,-0.73989 c 19.648859,-0.40694 85.603049,-1.08147 146.564889,-1.49896 l 110.83969,-0.75908 0,174.7942 0,174.7942 -146.56488,0 -146.56489,0 0,-173.29523 z m 231.04887,94.3273 c 2.12773,-1.92556 2.23357,-6.5666 2.23357,-97.93654 l 0,-95.91519 -2.65564,-2.82681 -2.65566,-2.82681 -73.90685,0 -73.90685,0 -2.82681,2.65565 -2.82681,2.65565 0,95.87413 c 0,87.49792 0.1766,96.06927 2.02136,98.10771 1.91652,2.11774 5.9179,2.23358 77.15574,2.23358 68.19934,0 75.34053,-0.18658 77.36795,-2.02137 l 0,0 z"
       id="path3849"
       inkscape:connector-curvature="0"
       transform="translate(0,412.36218)" />
  </g>
</svg>
